<svg xmlns="http://www.w3.org/2000/svg" xmlns:xlink="http://www.w3.org/1999/xlink" width="500" zoomAndPan="magnify" viewBox="0 0 375 374.999991" height="500" preserveAspectRatio="xMidYMid meet" version="1.0"><defs><clipPath id="fe3378bf4f"><path d="M 187.5 0 C 83.945312 0 0 83.945312 0 187.5 C 0 291.054688 83.945312 375 187.5 375 C 291.054688 375 375 291.054688 375 187.5 C 375 83.945312 291.054688 0 187.5 0 Z M 187.5 0 " clip-rule="nonzero"/></clipPath><clipPath id="15a38a5f1d"><path d="M 0 0 L 375 0 L 375 375 L 0 375 Z M 0 0 " clip-rule="nonzero"/></clipPath><clipPath id="926069cead"><path d="M 187.5 0 C 83.945312 0 0 83.945312 0 187.5 C 0 291.054688 83.945312 375 187.5 375 C 291.054688 375 375 291.054688 375 187.5 C 375 83.945312 291.054688 0 187.5 0 Z M 187.5 0 " clip-rule="nonzero"/></clipPath><clipPath id="ebedb8ea44"><rect x="0" width="375" y="0" height="375"/></clipPath><clipPath id="a56aeda4d1"><path d="M 38 67 L 341 67 L 341 306.058594 L 38 306.058594 Z M 38 67 " clip-rule="nonzero"/></clipPath></defs><g clip-path="url(#fe3378bf4f)"><g transform="matrix(1, 0, 0, 1, 0, 0)"><g clip-path="url(#ebedb8ea44)"><g clip-path="url(#15a38a5f1d)"><g clip-path="url(#926069cead)"><rect x="-82.5" width="540" fill="#ff751f" height="539.999987" y="-82.499998" fill-opacity="1"/></g></g></g></g></g><g clip-path="url(#a56aeda4d1)"><path fill="#000000" d="M 101.605469 163.222656 C 101.179688 164.386719 100.097656 167.523438 98.351562 172.617188 C 94.996094 182.457031 91.027344 191.214844 84.332031 200.074219 C 82.230469 202.867188 79.382812 207.003906 75.785156 212.484375 C 69.332031 222.335938 64.726562 230.058594 61.976562 235.671875 C 59.195312 241.339844 57.707031 247.378906 57.503906 253.769531 C 57.078125 266.792969 58.277344 278.824219 63.734375 290.253906 C 65.472656 293.90625 70.035156 294.898438 73.492188 296.507812 C 75.867188 297.617188 78.9375 301.222656 78.773438 303.996094 C 78.707031 305.132812 77.785156 306.042969 76.644531 306.085938 C 69.367188 306.363281 62.179688 306.375 55.089844 306.113281 C 49.558594 305.910156 50.90625 299.539062 51.5 296.089844 C 51.628906 295.359375 51.230469 294.636719 50.546875 294.34375 C 48.246094 293.371094 47.070312 291.53125 47.023438 288.839844 C 46.867188 279.238281 46.15625 271.527344 44.90625 265.710938 C 41.910156 251.699219 40.382812 244.511719 40.320312 244.152344 C 39.644531 239.90625 40.246094 237.464844 42.824219 233.777344 C 44.238281 231.75 46.164062 228.699219 48.578125 224.609375 C 53.5625 216.167969 56.105469 208.25 56.679688 198.242188 C 57.207031 189.191406 56.929688 181.097656 55.847656 173.96875 C 54.503906 165.171875 53.820312 157.023438 53.792969 149.523438 C 53.792969 149.367188 53.664062 149.230469 53.496094 149.21875 L 53.480469 149.210938 C 53.292969 149.199219 53.128906 149.332031 53.101562 149.515625 C 51.59375 159.496094 50.925781 169.09375 51.101562 178.3125 C 51.203125 184.167969 50.425781 189.402344 48.761719 194.019531 C 47.246094 198.207031 43.378906 203.671875 38.785156 204.847656 C 38.476562 204.921875 38.183594 204.699219 38.164062 204.386719 C 37.792969 197.652344 41.566406 190.800781 44.046875 184.9375 C 44.960938 182.773438 45.441406 180.035156 45.496094 176.722656 C 45.617188 168.851562 45.878906 161.207031 46.976562 153.308594 C 48.699219 141.007812 56.585938 128.699219 65.121094 119.753906 C 69.683594 114.972656 74.574219 110.3125 79.789062 105.761719 C 84.414062 101.738281 89.425781 95.460938 93.929688 89.105469 C 99.921875 80.671875 111.605469 65.347656 123.726562 68.382812 C 131.199219 70.257812 133.484375 77.5 137.136719 84.222656 C 143.09375 95.191406 158.335938 99.453125 164.707031 85.675781 C 168.09375 78.359375 169.523438 72.238281 177.859375 69.960938 C 194.800781 65.339844 203.917969 87.699219 209.570312 99.398438 C 213.039062 106.566406 221.59375 114.851562 224.886719 120.882812 C 227.445312 125.589844 229.898438 129.6875 232.21875 133.171875 C 238.851562 143.132812 251.472656 147.460938 261.277344 138.480469 C 270.0625 130.445312 268.824219 120.921875 270.339844 110.15625 C 271.253906 103.617188 273.363281 97.808594 276.648438 92.722656 C 276.839844 92.417969 276.777344 92.011719 276.5 91.777344 C 273.539062 89.347656 272.347656 86.265625 272.929688 82.558594 C 273.023438 81.949219 273.519531 81.484375 274.140625 81.441406 C 278.8125 81.097656 281.898438 83.046875 285.5625 85.636719 C 285.804688 85.804688 286.109375 85.8125 286.359375 85.664062 C 294.570312 80.828125 302.414062 81.246094 309.875 86.914062 C 311.226562 87.941406 312.910156 88.515625 314.925781 88.652344 C 325.664062 89.375 336.675781 88.679688 340.117188 101.351562 C 340.753906 103.726562 341.355469 109.851562 337.519531 109.582031 C 336.835938 109.535156 336.382812 109.8125 336.148438 110.40625 C 333.847656 116.398438 329.878906 114.863281 325.402344 113.328125 C 321.09375 111.847656 313.648438 114.722656 308.359375 116.527344 C 306.648438 117.109375 305.066406 117.921875 303.597656 118.976562 C 302.597656 119.699219 301.949219 120.808594 301.8125 122.03125 C 300.738281 131.628906 299.257812 140.617188 295.847656 149.507812 C 288.816406 167.78125 272.125 182.144531 252.195312 183.058594 C 247.636719 183.269531 244.046875 183.242188 241.421875 182.992188 C 237.546875 182.613281 235.1875 183.59375 234.667969 187.378906 C 234.140625 191.328125 234.039062 195.582031 234.363281 200.140625 C 235.269531 212.78125 236.410156 222.445312 237.785156 229.132812 C 238.710938 233.691406 241.171875 239.777344 241.457031 245.03125 C 241.539062 246.675781 241.652344 250.265625 241.789062 255.796875 C 241.875 258.914062 242.4375 262.296875 243.492188 265.949219 C 245.867188 274.164062 249.042969 281.679688 253.019531 288.507812 C 257.113281 295.535156 266.742188 294.007812 270.007812 301.710938 C 270.449219 302.757812 270.0625 303.960938 269.101562 304.550781 C 267.296875 305.652344 265.382812 306.214844 263.359375 306.226562 C 258.945312 306.273438 254.089844 306.289062 248.792969 306.28125 C 246.5625 306.273438 244.832031 306.144531 243.59375 305.894531 C 242.558594 305.679688 241.789062 304.800781 241.714844 303.738281 C 241.625 302.277344 241.625 300.28125 241.726562 297.746094 C 241.78125 296.367188 241.300781 295.332031 240.285156 294.636719 C 237.507812 292.769531 237.230469 290.550781 236.628906 287.460938 C 234.910156 278.566406 233.355469 266.164062 228.742188 257.542969 C 225.773438 251.996094 223.894531 247.933594 223.117188 245.371094 C 223.035156 245.105469 222.167969 241.496094 220.527344 234.5625 C 219.871094 231.789062 218.429688 228.070312 216.210938 223.398438 C 213.992188 218.71875 211.140625 212.96875 207.65625 206.132812 C 206.519531 203.894531 205.75 202.175781 205.371094 200.964844 C 204.796875 199.152344 203.957031 197.441406 202.835938 195.839844 C 202.828125 195.832031 202.808594 195.820312 202.800781 195.832031 L 202.171875 196.035156 C 202.042969 196.078125 201.976562 196.238281 202.050781 196.359375 C 203.03125 197.976562 203.375 199.207031 203.085938 200.066406 C 202.984375 200.371094 201.414062 204.386719 198.371094 212.105469 C 195.726562 218.820312 192.238281 224.703125 188.945312 231.566406 C 187.585938 234.40625 186.386719 238.835938 185.339844 244.855469 C 185.023438 246.667969 184.367188 248.527344 183.648438 249.867188 C 179.078125 258.347656 177.230469 265.230469 175.75 274.746094 C 174.980469 279.703125 174.816406 283.957031 175.269531 287.515625 C 176.460938 296.921875 187.117188 294.386719 188.855469 302.90625 C 189.039062 303.820312 188.59375 304.746094 187.761719 305.164062 C 186.53125 305.800781 185.144531 306.132812 183.59375 306.179688 C 179.070312 306.320312 172.957031 306.308594 165.242188 306.144531 C 164.734375 306.132812 164.171875 305.984375 163.570312 305.699219 C 159.648438 303.847656 162.0625 298.882812 163.375 295.859375 C 163.625 295.304688 163.542969 294.65625 163.171875 294.175781 C 160.804688 291.066406 160.222656 287.582031 161.425781 283.714844 C 164.78125 272.914062 167.433594 264.515625 167.546875 254.140625 C 167.59375 249.460938 167.332031 242.71875 169.089844 237.828125 C 173.734375 224.914062 175.730469 211.785156 177.726562 198.667969 C 177.785156 198.308594 177.496094 197.996094 177.136719 198.003906 C 170.625 198.207031 166.222656 198.363281 163.9375 198.464844 C 142.113281 199.457031 121.65625 190.910156 104.539062 177.925781 C 104.351562 177.789062 104.085938 177.898438 104.046875 178.128906 L 104.011719 178.40625 C 103.992188 178.554688 104.039062 178.695312 104.148438 178.785156 L 115.609375 188.300781 C 116.515625 189.050781 116.957031 190.214844 116.792969 191.382812 C 116.226562 195.386719 115.265625 199.707031 113.914062 204.320312 C 110.808594 214.929688 103.53125 224.90625 100.753906 236.199219 C 99.25 242.3125 100.710938 249.175781 102.929688 255.109375 C 106.5 264.644531 111.972656 275.03125 119.355469 286.269531 C 121.546875 289.605469 123.867188 291.882812 126.316406 293.085938 C 130.90625 295.351562 135.308594 295.488281 138.265625 300.613281 C 141.253906 305.773438 132.78125 306.207031 129.722656 306.253906 C 124.308594 306.335938 119.613281 306.300781 115.636719 306.144531 C 109.996094 305.921875 110.558594 301.65625 110.605469 297.53125 C 110.613281 296.550781 110.253906 295.609375 109.578125 294.886719 C 108.050781 293.25 107.027344 291.910156 106 289.644531 C 98.941406 273.96875 91.71875 262.09375 82.027344 246.640625 C 80.214844 243.753906 80.695312 241.089844 81.890625 237.632812 C 84.0625 231.316406 85.394531 225.019531 85.902344 218.738281 C 86.246094 214.492188 85.347656 209.136719 85.3125 205.144531 C 85.300781 203.550781 85.746094 202.074219 86.632812 200.714844 C 94.226562 189.097656 99.265625 176.613281 101.753906 163.257812 C 101.765625 163.222656 101.734375 163.183594 101.699219 163.175781 C 101.664062 163.164062 101.617188 163.183594 101.605469 163.222656 Z M 101.605469 163.222656 " fill-opacity="1" fill-rule="nonzero"/></g></svg>